<svg width="338" height="71" viewBox="0 0 338 71" fill="none" xmlns="http://www.w3.org/2000/svg">
<path d="M0.16 69V1.8H22.144C26.368 1.8 30.048 2.536 33.184 4.008C36.384 5.48 38.88 7.56 40.672 10.248C42.464 12.872 43.36 15.944 43.36 19.464C43.36 22.92 42.368 25.96 40.384 28.584C38.4 31.144 35.712 33.064 32.32 34.344C36.416 35.56 39.648 37.576 42.016 40.392C44.448 43.144 45.664 46.44 45.664 50.28C45.664 53.992 44.704 57.256 42.784 60.072C40.928 62.888 38.336 65.096 35.008 66.696C31.744 68.232 27.872 69 23.392 69H0.16ZM11.488 30.12H20.992C24.32 30.12 26.976 29.256 28.96 27.528C30.944 25.8 31.936 23.496 31.936 20.616C31.936 17.672 30.944 15.368 28.96 13.704C26.976 11.976 24.32 11.112 20.992 11.112H11.488V30.12ZM11.488 59.688H22.048C25.696 59.688 28.608 58.76 30.784 56.904C33.024 54.984 34.144 52.456 34.144 49.32C34.144 46.12 33.056 43.592 30.88 41.736C28.704 39.88 25.76 38.952 22.048 38.952H11.488V59.688ZM78.8425 70.056C74.1065 70.056 69.7545 68.712 65.7865 66.024C61.8185 63.336 58.6505 59.432 56.2825 54.312C53.9145 49.128 52.7305 42.824 52.7305 35.4C52.7305 27.976 53.9145 21.704 56.2825 16.584C58.6505 11.4 61.8185 7.464 65.7865 4.776C69.7545 2.088 74.1065 0.743998 78.8425 0.743998C83.5785 0.743998 87.8985 2.088 91.8025 4.776C95.7705 7.464 98.9385 11.4 101.307 16.584C103.739 21.704 104.955 27.976 104.955 35.4C104.955 42.824 103.739 49.128 101.307 54.312C98.9385 59.432 95.7705 63.336 91.8025 66.024C87.8985 68.712 83.5785 70.056 78.8425 70.056ZM78.8425 59.688C81.5305 59.688 83.9625 58.792 86.1385 57C88.3785 55.144 90.1385 52.424 91.4185 48.84C92.6985 45.192 93.3385 40.712 93.3385 35.4C93.3385 30.088 92.6985 25.64 91.4185 22.056C90.1385 18.408 88.3785 15.688 86.1385 13.896C83.9625 12.04 81.5305 11.112 78.8425 11.112C76.1545 11.112 73.6905 12.04 71.4505 13.896C69.2745 15.688 67.5465 18.408 66.2665 22.056C64.9865 25.64 64.3465 30.088 64.3465 35.4C64.3465 40.712 64.9865 45.192 66.2665 48.84C67.5465 52.424 69.2745 55.144 71.4505 57C73.6905 58.792 76.1545 59.688 78.8425 59.688ZM136.885 70.056C132.149 70.056 127.797 68.712 123.829 66.024C119.861 63.336 116.693 59.432 114.325 54.312C111.957 49.128 110.773 42.824 110.773 35.4C110.773 27.976 111.957 21.704 114.325 16.584C116.693 11.4 119.861 7.464 123.829 4.776C127.797 2.088 132.149 0.743998 136.885 0.743998C141.621 0.743998 145.941 2.088 149.845 4.776C153.813 7.464 156.981 11.4 159.349 16.584C161.781 21.704 162.997 27.976 162.997 35.4C162.997 42.824 161.781 49.128 159.349 54.312C156.981 59.432 153.813 63.336 149.845 66.024C145.941 68.712 141.621 70.056 136.885 70.056ZM136.885 59.688C139.573 59.688 142.005 58.792 144.181 57C146.421 55.144 148.181 52.424 149.461 48.84C150.741 45.192 151.381 40.712 151.381 35.4C151.381 30.088 150.741 25.64 149.461 22.056C148.181 18.408 146.421 15.688 144.181 13.896C142.005 12.04 139.573 11.112 136.885 11.112C134.197 11.112 131.733 12.04 129.493 13.896C127.317 15.688 125.589 18.408 124.309 22.056C123.029 25.64 122.389 30.088 122.389 35.4C122.389 40.712 123.029 45.192 124.309 48.84C125.589 52.424 127.317 55.144 129.493 57C131.733 58.792 134.197 59.688 136.885 59.688ZM174.288 69V1.8H196.272C200.496 1.8 204.176 2.536 207.312 4.008C210.512 5.48 213.008 7.56 214.8 10.248C216.592 12.872 217.488 15.944 217.488 19.464C217.488 22.92 216.496 25.96 214.512 28.584C212.528 31.144 209.84 33.064 206.448 34.344C210.544 35.56 213.776 37.576 216.144 40.392C218.576 43.144 219.792 46.44 219.792 50.28C219.792 53.992 218.832 57.256 216.912 60.072C215.056 62.888 212.464 65.096 209.136 66.696C205.872 68.232 202 69 197.52 69H174.288ZM185.616 30.12H195.12C198.448 30.12 201.104 29.256 203.088 27.528C205.072 25.8 206.064 23.496 206.064 20.616C206.064 17.672 205.072 15.368 203.088 13.704C201.104 11.976 198.448 11.112 195.12 11.112H185.616V30.12ZM185.616 59.688H196.176C199.824 59.688 202.736 58.76 204.912 56.904C207.152 54.984 208.272 52.456 208.272 49.32C208.272 46.12 207.184 43.592 205.008 41.736C202.832 39.88 199.888 38.952 196.176 38.952H185.616V59.688ZM232.522 69V1.8H276.49V11.592H244.042V30.312H265.066V39.912H244.042V59.208H276.874V69H232.522ZM290.084 69V1.8H312.932C317.412 1.8 321.316 2.664 324.644 4.392C328.036 6.056 330.66 8.424 332.516 11.496C334.436 14.504 335.396 18.024 335.396 22.056C335.396 26.472 334.244 30.28 331.94 33.48C329.636 36.68 326.5 39.016 322.532 40.488L337.22 69H324.836L311.492 42.12H301.604V69H290.084ZM301.604 32.904H311.972C315.556 32.904 318.404 31.944 320.516 30.024C322.692 28.04 323.78 25.448 323.78 22.248C323.78 18.984 322.692 16.392 320.516 14.472C318.404 12.488 315.556 11.496 311.972 11.496H301.604V32.904Z" fill="url(#paint0_linear_4596_2891)"/>
<defs>
<linearGradient id="paint0_linear_4596_2891" x1="334.164" y1="11.7822" x2="115.787" y2="44.2049" gradientUnits="userSpaceOnUse">
<stop stop-color="#0059FF"/>
<stop offset="0.416667" stop-color="#0266FB"/>
<stop offset="0.71865" stop-color="#1FD7BE"/>
<stop offset="0.71875" stop-color="#20D9BD"/>
<stop offset="1" stop-color="#00FF7E"/>
</linearGradient>
</defs>
</svg>
