<svg width="345" height="21" viewBox="0 0 345 21" fill="none" xmlns="http://www.w3.org/2000/svg">
<path d="M7.93 20.286C6.64733 20.286 5.434 20.0693 4.29 19.636C3.146 19.1853 2.01067 18.5093 0.884 17.608L2.522 15.268C3.63133 16.152 4.602 16.7847 5.434 17.166C6.266 17.53 7.124 17.712 8.008 17.712C8.70133 17.712 9.308 17.5907 9.828 17.348C10.3653 17.1053 10.7813 16.776 11.076 16.36C11.3707 15.944 11.518 15.476 11.518 14.956C11.518 14.3147 11.3273 13.812 10.946 13.448C10.582 13.084 10.0967 12.798 9.49 12.59C8.90067 12.3647 8.242 12.174 7.514 12.018C6.80333 11.862 6.084 11.68 5.356 11.472C4.628 11.264 3.96067 10.9867 3.354 10.64C2.76467 10.276 2.288 9.79067 1.924 9.184C1.56 8.56 1.378 7.76267 1.378 6.792C1.378 5.73467 1.62933 4.816 2.132 4.036C2.652 3.23867 3.38 2.62333 4.316 2.19C5.26933 1.73933 6.37867 1.514 7.644 1.514C8.85733 1.514 10.0187 1.70467 11.128 2.086C12.2547 2.45 13.3293 3.022 14.352 3.802L12.766 6.116C11.882 5.44 11.0067 4.93733 10.14 4.608C9.29067 4.26133 8.43267 4.088 7.566 4.088C6.59533 4.088 5.81533 4.322 5.226 4.79C4.63667 5.24067 4.342 5.81267 4.342 6.506C4.342 7.13 4.524 7.624 4.888 7.988C5.252 8.352 5.73733 8.638 6.344 8.846C6.968 9.054 7.644 9.236 8.372 9.392C9.1 9.548 9.828 9.73867 10.556 9.964C11.284 10.172 11.9513 10.458 12.558 10.822C13.1647 11.186 13.65 11.68 14.014 12.304C14.3953 12.928 14.586 13.734 14.586 14.722C14.586 15.7967 14.3087 16.7587 13.754 17.608C13.1993 18.44 12.4193 19.0987 11.414 19.584C10.426 20.052 9.26467 20.286 7.93 20.286ZM23.5198 20.26C22.2892 20.26 21.1798 19.9653 20.1918 19.376C19.2038 18.7693 18.4238 17.9633 17.8518 16.958C17.2798 15.9353 16.9938 14.7827 16.9938 13.5C16.9938 12.2347 17.2798 11.0993 17.8518 10.094C18.4238 9.07133 19.2038 8.26533 20.1918 7.676C21.1798 7.06933 22.2892 6.766 23.5198 6.766C24.7505 6.766 25.8598 7.06933 26.8478 7.676C27.8358 8.26533 28.6158 9.07133 29.1878 10.094C29.7598 11.0993 30.0458 12.2347 30.0458 13.5C30.0458 14.7827 29.7598 15.9353 29.1878 16.958C28.6158 17.9633 27.8358 18.7693 26.8478 19.376C25.8772 19.9653 24.7678 20.26 23.5198 20.26ZM23.5198 17.738C24.2305 17.738 24.8545 17.556 25.3918 17.192C25.9465 16.828 26.3798 16.3253 26.6918 15.684C27.0212 15.0427 27.1858 14.3147 27.1858 13.5C27.1858 12.6853 27.0212 11.966 26.6918 11.342C26.3798 10.7007 25.9465 10.198 25.3918 9.834C24.8545 9.47 24.2305 9.288 23.5198 9.288C22.8092 9.288 22.1765 9.47867 21.6218 9.86C21.0845 10.224 20.6512 10.7267 20.3218 11.368C20.0098 11.992 19.8538 12.7027 19.8538 13.5C19.8538 14.3147 20.0098 15.0427 20.3218 15.684C20.6512 16.3253 21.0845 16.828 21.6218 17.192C22.1765 17.556 22.8092 17.738 23.5198 17.738ZM39.5777 20.26C38.295 20.26 37.1337 19.9653 36.0937 19.376C35.071 18.7693 34.2564 17.9633 33.6497 16.958C33.0604 15.9353 32.7657 14.7913 32.7657 13.526C32.7657 12.2433 33.0604 11.0907 33.6497 10.068C34.2564 9.04533 35.071 8.23933 36.0937 7.65C37.1337 7.06067 38.295 6.766 39.5777 6.766C40.8604 6.766 42.013 7.04333 43.0357 7.598C44.0757 8.15267 44.8904 8.88933 45.4797 9.808L43.1917 11.394C42.845 10.7527 42.351 10.25 41.7097 9.886C41.0857 9.50467 40.375 9.314 39.5777 9.314C38.8324 9.314 38.165 9.496 37.5757 9.86C36.9864 10.224 36.527 10.7267 36.1977 11.368C35.8684 11.992 35.7037 12.7113 35.7037 13.526C35.7037 14.3233 35.8684 15.0427 36.1977 15.684C36.5444 16.308 37.0037 16.802 37.5757 17.166C38.165 17.53 38.8324 17.712 39.5777 17.712C40.375 17.712 41.0857 17.53 41.7097 17.166C42.351 16.7847 42.845 16.282 43.1917 15.658L45.4797 17.218C44.8904 18.1367 44.0757 18.8733 43.0357 19.428C42.013 19.9827 40.8604 20.26 39.5777 20.26ZM54.8815 4.426C54.2922 4.426 53.7895 4.218 53.3735 3.802C52.9749 3.386 52.7755 2.892 52.7755 2.32C52.7755 1.748 52.9749 1.26267 53.3735 0.863998C53.7895 0.447999 54.2922 0.239999 54.8815 0.239999C55.4535 0.239999 55.9389 0.447999 56.3375 0.863998C56.7535 1.26267 56.9615 1.748 56.9615 2.32C56.9615 2.892 56.7535 3.386 56.3375 3.802C55.9389 4.218 55.4535 4.426 54.8815 4.426ZM58.2095 20.26C56.6322 20.26 55.4362 19.8873 54.6215 19.142C53.8069 18.3967 53.3995 17.296 53.3995 15.84V9.314H48.7195V6.974H56.3375V15.528C56.3375 16.308 56.5195 16.8713 56.8835 17.218C57.2649 17.5647 57.8369 17.738 58.5995 17.738C59.0329 17.738 59.4575 17.6947 59.8735 17.608C60.2895 17.5213 60.7489 17.3827 61.2515 17.192V19.662C60.8529 19.818 60.3762 19.9567 59.8215 20.078C59.2669 20.1993 58.7295 20.26 58.2095 20.26ZM69.1714 20.234C68.2527 20.234 67.438 20.0693 66.7274 19.74C66.0167 19.3933 65.462 18.9253 65.0634 18.336C64.682 17.7467 64.4914 17.062 64.4914 16.282C64.4914 15.4847 64.6907 14.8 65.0894 14.228C65.5054 13.656 66.086 13.214 66.8314 12.902C67.594 12.59 68.4954 12.434 69.5354 12.434C70.1594 12.434 70.766 12.5033 71.3554 12.642C71.9447 12.7633 72.534 12.9713 73.1234 13.266V11.966C73.1234 11.0473 72.872 10.3627 72.3694 9.912C71.8667 9.444 71.0954 9.21 70.0554 9.21C69.4834 9.21 68.8767 9.29667 68.2354 9.47C67.6114 9.64333 66.9094 9.92933 66.1294 10.328L65.0114 8.196C66.034 7.69333 66.996 7.32933 67.8974 7.104C68.816 6.87867 69.726 6.766 70.6274 6.766C72.3434 6.766 73.6694 7.19067 74.6054 8.04C75.5587 8.88933 76.0354 10.094 76.0354 11.654V20H73.1234V18.622C72.534 19.1767 71.9187 19.584 71.2774 19.844C70.636 20.104 69.934 20.234 69.1714 20.234ZM67.2474 16.204C67.2474 16.8107 67.49 17.296 67.9754 17.66C68.478 18.0067 69.1454 18.18 69.9774 18.18C70.584 18.18 71.1474 18.0847 71.6674 17.894C72.1874 17.7033 72.6727 17.4173 73.1234 17.036V14.982C72.6554 14.7567 72.17 14.592 71.6674 14.488C71.1647 14.384 70.6274 14.332 70.0554 14.332C69.1887 14.332 68.504 14.5053 68.0014 14.852C67.4987 15.1813 67.2474 15.632 67.2474 16.204ZM89.4672 20.26C87.9072 20.26 86.7112 19.8873 85.8792 19.142C85.0646 18.3967 84.6572 17.296 84.6572 15.84V3.412H79.9772V1.098H87.5952V15.528C87.5952 16.308 87.7772 16.8713 88.1412 17.218C88.5226 17.5647 89.1032 17.738 89.8832 17.738C90.2992 17.738 90.7152 17.6947 91.1312 17.608C91.5472 17.5213 92.0066 17.3827 92.5092 17.192V19.662C92.1106 19.818 91.6339 19.9567 91.0792 20.078C90.5246 20.1993 89.9872 20.26 89.4672 20.26ZM112.431 20V1.8H124.417V4.452H115.551V9.652H121.453V12.252H115.551V20H112.431ZM127.761 20V17.686H130.985V9.314H127.761V6.974H133.923V10.068C134.356 8.976 134.945 8.15267 135.691 7.598C136.453 7.04333 137.32 6.766 138.291 6.766C138.689 6.766 139.027 6.80067 139.305 6.87C139.582 6.922 139.911 7.01733 140.293 7.156V9.834C139.911 9.678 139.504 9.56533 139.071 9.496C138.655 9.40933 138.247 9.366 137.849 9.366C136.999 9.366 136.228 9.574 135.535 9.99C134.841 10.3887 134.304 10.9607 133.923 11.706V17.686H137.355V20H127.761ZM149.617 20.26C148.351 20.26 147.207 19.9653 146.185 19.376C145.162 18.7693 144.347 17.9547 143.741 16.932C143.151 15.9093 142.857 14.7653 142.857 13.5C142.857 12.2173 143.134 11.0733 143.689 10.068C144.261 9.06267 145.032 8.26533 146.003 7.676C146.991 7.06933 148.091 6.766 149.305 6.766C150.57 6.766 151.688 7.06067 152.659 7.65C153.647 8.23933 154.418 9.03667 154.973 10.042C155.545 11.0473 155.831 12.2 155.831 13.5V14.202H145.743C145.829 14.9127 146.055 15.5453 146.419 16.1C146.8 16.6373 147.277 17.062 147.849 17.374C148.438 17.686 149.079 17.842 149.773 17.842C150.449 17.842 151.073 17.712 151.645 17.452C152.234 17.192 152.719 16.828 153.101 16.36L155.051 18.102C154.305 18.8473 153.482 19.3933 152.581 19.74C151.679 20.0867 150.691 20.26 149.617 20.26ZM145.769 12.356H153.023C152.919 11.7147 152.693 11.16 152.347 10.692C152.017 10.2067 151.593 9.834 151.073 9.574C150.57 9.29667 149.998 9.158 149.357 9.158C148.75 9.158 148.195 9.288 147.693 9.548C147.207 9.808 146.8 10.1807 146.471 10.666C146.141 11.134 145.907 11.6973 145.769 12.356ZM165.336 20.26C164.071 20.26 162.927 19.9653 161.904 19.376C160.882 18.7693 160.067 17.9547 159.46 16.932C158.871 15.9093 158.576 14.7653 158.576 13.5C158.576 12.2173 158.854 11.0733 159.408 10.068C159.98 9.06267 160.752 8.26533 161.722 7.676C162.71 7.06933 163.811 6.766 165.024 6.766C166.29 6.766 167.408 7.06067 168.378 7.65C169.366 8.23933 170.138 9.03667 170.692 10.042C171.264 11.0473 171.55 12.2 171.55 13.5V14.202H161.462C161.549 14.9127 161.774 15.5453 162.138 16.1C162.52 16.6373 162.996 17.062 163.568 17.374C164.158 17.686 164.799 17.842 165.492 17.842C166.168 17.842 166.792 17.712 167.364 17.452C167.954 17.192 168.439 16.828 168.82 16.36L170.77 18.102C170.025 18.8473 169.202 19.3933 168.3 19.74C167.399 20.0867 166.411 20.26 165.336 20.26ZM161.488 12.356H168.742C168.638 11.7147 168.413 11.16 168.066 10.692C167.737 10.2067 167.312 9.834 166.792 9.574C166.29 9.29667 165.718 9.158 165.076 9.158C164.47 9.158 163.915 9.288 163.412 9.548C162.927 9.808 162.52 10.1807 162.19 10.666C161.861 11.134 161.627 11.6973 161.488 12.356ZM179.964 20.182C178.872 20.182 177.876 19.8873 176.974 19.298C176.09 18.7087 175.38 17.9113 174.842 16.906C174.322 15.8833 174.062 14.748 174.062 13.5C174.062 12.2347 174.331 11.0993 174.868 10.094C175.406 9.08867 176.125 8.29133 177.026 7.702C177.928 7.09533 178.924 6.792 180.016 6.792C180.727 6.792 181.377 6.93067 181.966 7.208C182.573 7.48533 183.11 7.87533 183.578 8.378V1.332L186.516 0.837999V20H183.656V18.492C183.188 19.0467 182.642 19.4713 182.018 19.766C181.394 20.0433 180.71 20.182 179.964 20.182ZM180.666 17.764C181.256 17.764 181.802 17.6513 182.304 17.426C182.807 17.2007 183.232 16.88 183.578 16.464V10.536C183.232 10.12 182.798 9.79933 182.278 9.574C181.776 9.33133 181.238 9.21 180.666 9.21C179.938 9.21 179.297 9.392 178.742 9.756C178.188 10.12 177.754 10.6227 177.442 11.264C177.13 11.9053 176.974 12.6507 176.974 13.5C176.974 14.3147 177.13 15.0513 177.442 15.71C177.754 16.3513 178.188 16.854 178.742 17.218C179.297 17.582 179.938 17.764 180.666 17.764ZM196.438 20.26C195.207 20.26 194.098 19.9653 193.11 19.376C192.122 18.7693 191.342 17.9633 190.77 16.958C190.198 15.9353 189.912 14.7827 189.912 13.5C189.912 12.2347 190.198 11.0993 190.77 10.094C191.342 9.07133 192.122 8.26533 193.11 7.676C194.098 7.06933 195.207 6.766 196.438 6.766C197.669 6.766 198.778 7.06933 199.766 7.676C200.754 8.26533 201.534 9.07133 202.106 10.094C202.678 11.0993 202.964 12.2347 202.964 13.5C202.964 14.7827 202.678 15.9353 202.106 16.958C201.534 17.9633 200.754 18.7693 199.766 19.376C198.795 19.9653 197.686 20.26 196.438 20.26ZM196.438 17.738C197.149 17.738 197.773 17.556 198.31 17.192C198.865 16.828 199.298 16.3253 199.61 15.684C199.939 15.0427 200.104 14.3147 200.104 13.5C200.104 12.6853 199.939 11.966 199.61 11.342C199.298 10.7007 198.865 10.198 198.31 9.834C197.773 9.47 197.149 9.288 196.438 9.288C195.727 9.288 195.095 9.47867 194.54 9.86C194.003 10.224 193.569 10.7267 193.24 11.368C192.928 11.992 192.772 12.7027 192.772 13.5C192.772 14.3147 192.928 15.0427 193.24 15.684C193.569 16.3253 194.003 16.828 194.54 17.192C195.095 17.556 195.727 17.738 196.438 17.738ZM205.684 20V6.974H208.206V8.092C208.518 7.64133 208.856 7.312 209.22 7.104C209.601 6.896 210.026 6.792 210.494 6.792C211.049 6.792 211.543 6.93067 211.976 7.208C212.427 7.468 212.773 7.84933 213.016 8.352C213.363 7.81467 213.761 7.42467 214.212 7.182C214.68 6.922 215.2 6.792 215.772 6.792C216.621 6.792 217.315 7.104 217.852 7.728C218.407 8.352 218.684 9.16667 218.684 10.172V20H216.188V10.952C216.188 10.328 216.058 9.84267 215.798 9.496C215.538 9.132 215.165 8.95 214.68 8.95C214.437 8.95 214.212 9.002 214.004 9.106C213.796 9.21 213.597 9.392 213.406 9.652C213.441 9.756 213.458 9.86 213.458 9.964C213.458 10.068 213.458 10.1807 213.458 10.302V20H210.962V10.952C210.962 10.328 210.823 9.84267 210.546 9.496C210.286 9.132 209.913 8.95 209.428 8.95C209.22 8.95 209.012 8.99333 208.804 9.08C208.596 9.16667 208.397 9.33133 208.206 9.574V20H205.684ZM237.436 20V1.8H240.582L247.16 14.54L247.108 1.8H249.76V20H246.874L240.036 6.844L240.088 20H237.436ZM259.656 20.26C258.39 20.26 257.246 19.9653 256.224 19.376C255.201 18.7693 254.386 17.9547 253.78 16.932C253.19 15.9093 252.896 14.7653 252.896 13.5C252.896 12.2173 253.173 11.0733 253.728 10.068C254.3 9.06267 255.071 8.26533 256.042 7.676C257.03 7.06933 258.13 6.766 259.344 6.766C260.609 6.766 261.727 7.06067 262.698 7.65C263.686 8.23933 264.457 9.03667 265.012 10.042C265.584 11.0473 265.87 12.2 265.87 13.5V14.202H255.782C255.868 14.9127 256.094 15.5453 256.458 16.1C256.839 16.6373 257.316 17.062 257.888 17.374C258.477 17.686 259.118 17.842 259.812 17.842C260.488 17.842 261.112 17.712 261.684 17.452C262.273 17.192 262.758 16.828 263.14 16.36L265.09 18.102C264.344 18.8473 263.521 19.3933 262.62 19.74C261.718 20.0867 260.73 20.26 259.656 20.26ZM255.808 12.356H263.062C262.958 11.7147 262.732 11.16 262.386 10.692C262.056 10.2067 261.632 9.834 261.112 9.574C260.609 9.29667 260.037 9.158 259.396 9.158C258.789 9.158 258.234 9.288 257.732 9.548C257.246 9.808 256.839 10.1807 256.51 10.666C256.18 11.134 255.946 11.6973 255.808 12.356ZM277.325 20.26C275.696 20.26 274.457 19.9047 273.607 19.194C272.775 18.466 272.359 17.4087 272.359 16.022V9.314H268.199V6.974H272.359V3.386L275.297 2.762V6.974H280.809V9.314H275.297V15.476C275.297 16.2907 275.488 16.8713 275.869 17.218C276.268 17.5647 276.883 17.738 277.715 17.738C278.166 17.738 278.634 17.7033 279.119 17.634C279.622 17.5473 280.194 17.3913 280.835 17.166V19.662C280.281 19.8353 279.7 19.974 279.093 20.078C278.487 20.1993 277.897 20.26 277.325 20.26ZM286.207 20L283.685 6.974H286.103L287.585 15.918L289.691 6.974H291.927L294.085 15.918L295.541 6.974H297.829L295.333 20H292.889L290.783 10.822L288.703 20H286.207ZM306.477 20.26C305.246 20.26 304.137 19.9653 303.149 19.376C302.161 18.7693 301.381 17.9633 300.809 16.958C300.237 15.9353 299.951 14.7827 299.951 13.5C299.951 12.2347 300.237 11.0993 300.809 10.094C301.381 9.07133 302.161 8.26533 303.149 7.676C304.137 7.06933 305.246 6.766 306.477 6.766C307.708 6.766 308.817 7.06933 309.805 7.676C310.793 8.26533 311.573 9.07133 312.145 10.094C312.717 11.0993 313.003 12.2347 313.003 13.5C313.003 14.7827 312.717 15.9353 312.145 16.958C311.573 17.9633 310.793 18.7693 309.805 19.376C308.834 19.9653 307.725 20.26 306.477 20.26ZM306.477 17.738C307.188 17.738 307.812 17.556 308.349 17.192C308.904 16.828 309.337 16.3253 309.649 15.684C309.978 15.0427 310.143 14.3147 310.143 13.5C310.143 12.6853 309.978 11.966 309.649 11.342C309.337 10.7007 308.904 10.198 308.349 9.834C307.812 9.47 307.188 9.288 306.477 9.288C305.766 9.288 305.134 9.47867 304.579 9.86C304.042 10.224 303.608 10.7267 303.279 11.368C302.967 11.992 302.811 12.7027 302.811 13.5C302.811 14.3147 302.967 15.0427 303.279 15.684C303.608 16.3253 304.042 16.828 304.579 17.192C305.134 17.556 305.766 17.738 306.477 17.738ZM316.399 20V17.686H319.623V9.314H316.399V6.974H322.561V10.068C322.994 8.976 323.584 8.15267 324.329 7.598C325.092 7.04333 325.958 6.766 326.929 6.766C327.328 6.766 327.666 6.80067 327.943 6.87C328.22 6.922 328.55 7.01733 328.931 7.156V9.834C328.55 9.678 328.142 9.56533 327.709 9.496C327.293 9.40933 326.886 9.366 326.487 9.366C325.638 9.366 324.866 9.574 324.173 9.99C323.48 10.3887 322.942 10.9607 322.561 11.706V17.686H325.993V20H316.399ZM332.431 20V1.332L335.369 0.837999V12.59L341.167 6.974H344.573L338.255 13.032L344.911 20H341.141L335.369 13.942V20H332.431Z" fill="url(#paint0_linear_4414_2985)"/>
<defs>
<linearGradient id="paint0_linear_4414_2985" x1="341.219" y1="4.76237" x2="170.498" y2="98.8497" gradientUnits="userSpaceOnUse">
<stop stop-color="#0059FF"/>
<stop offset="0.416667" stop-color="#0266FB"/>
<stop offset="0.71865" stop-color="#1FD7BE"/>
<stop offset="0.71875" stop-color="#20D9BD"/>
<stop offset="1" stop-color="#00FF7E"/>
</linearGradient>
</defs>
</svg>
