<svg width="383" height="163" viewBox="0 0 383 163" fill="none" xmlns="http://www.w3.org/2000/svg">
<g filter="url(#filter0_d_4200_2937)">
<path d="M286.168 60.9365C285.832 59.7888 284.63 59.1268 283.477 59.4545C282.324 59.7822 281.652 60.9766 281.973 62.1285C282.295 63.2803 283.488 63.9575 284.646 63.6445C285.211 63.4916 285.691 63.1185 285.977 62.6091C286.264 62.0998 286.333 61.4971 286.168 60.9365Z" fill="url(#paint0_linear_4200_2937)"/>
<path d="M374.939 24.6257L358.478 12.6862C343.081 1.47302 323.578 -2.56532 304.976 1.60837L298.968 3.04439C290.092 5.09837 281.536 8.34182 273.534 12.6862C261.791 19.0886 251.484 27.8147 243.244 38.3295C240.362 41.9559 237.761 45.7964 235.466 49.8176L231.35 56.9157C230.202 58.9438 230.062 61.3885 230.973 63.5334C231.883 65.6783 233.741 67.2805 236.001 67.8705C239.834 68.8164 243.724 69.5153 247.648 69.9629C248.347 69.9629 249.047 69.9629 249.788 69.9629C258.725 70.6438 267.714 69.8115 276.374 67.5012L278.678 66.8447C277.985 66.1929 277.426 65.4124 277.032 64.5471C276.864 64.1476 276.727 63.7362 276.621 63.3162V62.6598L272.834 63.6445C267.862 64.9853 262.559 64.2981 258.096 61.7347C253.633 59.1713 250.377 54.9425 249.047 49.9817L256.29 48.0534C257.861 53.9779 263.677 57.7543 269.748 56.7926C268.062 55.2066 266.742 53.2748 265.879 51.1306C265.631 50.5442 265.424 49.9409 265.262 49.3253L264.356 45.8788L271.6 44.1146L272.505 47.561C273.09 49.6901 274.475 51.5124 276.374 52.6486C278.3 53.7734 280.603 54.0695 282.753 53.4692L294.605 51.2947L310.985 48.3406L314.812 47.6431L328.352 45.1403L329.587 44.9352L330.533 48.5047L291.272 58.9671V59.6236C291.502 60.3668 291.599 61.1444 291.56 61.9212C291.491 63.2475 291.08 64.5335 290.366 65.6549C290.049 66.2421 289.631 66.7697 289.132 67.214C288.339 67.9582 287.4 68.5309 286.374 68.8962L239.458 81.369C222.578 85.8758 208.187 96.8867 199.455 111.977C198.069 114.299 197.683 117.081 198.385 119.69C199.046 122.463 200.825 124.84 203.303 126.262C205.78 127.683 208.736 128.022 211.472 127.199L310.697 96.5498C313.008 95.7862 314.862 94.0416 315.759 91.7851C316.656 89.5285 316.506 86.9916 315.347 84.8565L313.248 81.2459C312.968 80.7633 313.048 80.1528 313.443 79.7583C313.839 79.3638 314.452 79.284 314.936 79.5638L321.027 83.0923C329.134 87.8242 339.245 87.5052 347.036 82.2717C357.09 75.356 365.025 65.7981 369.96 54.6591L378.191 36.278C380.022 32.1172 378.663 27.2459 374.939 24.6257Z" fill="url(#paint1_linear_4200_2937)"/>
<path d="M217.481 21.3024L204.805 24.2154C187.856 28.0653 173.284 38.7861 164.597 53.7974C164.082 54.6343 163.075 55.0329 162.124 54.7769C161.173 54.5209 160.505 53.6714 160.482 52.6897V45.6326C160.451 42.9032 159.183 40.3342 157.032 38.6446C154.882 36.955 152.08 36.3263 149.411 36.9345L100.972 48.0123C83.1089 52.0633 68.6888 65.1623 62.9858 82.5178L56.1541 103.238C55.8682 104.202 55.8682 105.228 56.1541 106.192C56.9011 108.976 59.7051 110.69 62.5331 110.089L142.085 92.8572L148.135 91.4622L6.39786 129.291C5.30247 129.562 4.4354 130.395 4.12327 131.477C3.81115 132.558 4.10138 133.723 4.88464 134.533C5.6679 135.344 6.8252 135.676 7.92059 135.404H8.20867L47.7996 123.916C52.9493 122.386 58.5267 123.628 62.5331 127.199L78.995 141.764C92.6375 153.927 111.678 158.069 129.163 152.678L144.02 147.959C149.832 146.255 155.374 143.741 160.482 140.492C169.418 134.804 176.844 127.048 182.129 117.885L229.004 36.9345C231.12 33.2939 230.872 28.7502 228.373 25.36C225.873 21.9699 221.598 20.3769 217.481 21.3024Z" fill="url(#paint2_linear_4200_2937)"/>
</g>
<defs>
<filter id="filter0_d_4200_2937" x="0" y="0" width="383" height="163" filterUnits="userSpaceOnUse" color-interpolation-filters="sRGB">
<feFlood flood-opacity="0" result="BackgroundImageFix"/>
<feColorMatrix in="SourceAlpha" type="matrix" values="0 0 0 0 0 0 0 0 0 0 0 0 0 0 0 0 0 0 127 0" result="hardAlpha"/>
<feOffset dy="4"/>
<feGaussianBlur stdDeviation="2"/>
<feComposite in2="hardAlpha" operator="out"/>
<feColorMatrix type="matrix" values="0 0 0 0 0 0 0 0 0 0 0 0 0 0 0 0 0 0 0.25 0"/>
<feBlend mode="normal" in2="BackgroundImageFix" result="effect1_dropShadow_4200_2937"/>
<feBlend mode="normal" in="SourceGraphic" in2="effect1_dropShadow_4200_2937" result="shape"/>
</filter>
<linearGradient id="paint0_linear_4200_2937" x1="445.767" y1="87.9747" x2="90.5595" y2="87.9747" gradientUnits="userSpaceOnUse">
<stop stop-color="#0059FF"/>
<stop offset="0.24" stop-color="#0266FB"/>
<stop offset="0.68" stop-color="#20D9BD"/>
<stop offset="1" stop-color="#00FF7E"/>
</linearGradient>
<linearGradient id="paint1_linear_4200_2937" x1="445.767" y1="87.9747" x2="90.5595" y2="87.9747" gradientUnits="userSpaceOnUse">
<stop stop-color="#0059FF"/>
<stop offset="0.24" stop-color="#0266FB"/>
<stop offset="0.68" stop-color="#20D9BD"/>
<stop offset="1" stop-color="#00FF7E"/>
</linearGradient>
<linearGradient id="paint2_linear_4200_2937" x1="445.767" y1="87.9747" x2="90.5595" y2="87.9747" gradientUnits="userSpaceOnUse">
<stop stop-color="#0059FF"/>
<stop offset="0.24" stop-color="#0266FB"/>
<stop offset="0.68" stop-color="#20D9BD"/>
<stop offset="1" stop-color="#00FF7E"/>
</linearGradient>
</defs>
</svg>
